<svg width="28" height="28" viewBox="0 0 28 28" fill="none" xmlns="http://www.w3.org/2000/svg">
<path fill-rule="evenodd" clip-rule="evenodd" d="M3.05138 13.8673L21.9872 25.9247L21.9882 25.9253C22.1714 26.0398 22.3298 26.0917 22.4803 26.0658C22.6471 26.037 22.7917 25.9282 22.9376 25.7896C23.1583 25.58 23.5073 25.5894 23.7165 25.8104C23.9258 26.0313 23.9164 26.3809 23.6958 26.5904C23.3755 26.8946 23.0333 27.0903 22.6671 27.1534C22.2853 27.2192 21.8661 27.151 21.4002 26.8587L21.397 26.8567L2.45707 14.7966C2.45515 14.7954 2.45325 14.7942 2.45137 14.7929L2.45109 14.7927C1.99091 14.4916 1.7535 14.139 1.65319 13.7642C1.55693 13.4047 1.59092 13.0116 1.73246 12.5928C1.82992 12.3044 2.14292 12.1494 2.43092 12.2471C2.71898 12.3447 2.87361 12.6582 2.77609 12.9467C2.71163 13.1374 2.67359 13.3146 2.71744 13.4783C2.75696 13.6261 2.8706 13.7486 3.05138 13.8673ZM22.2935 1.06456C23.6794 1.68621 24.3005 3.31779 23.6799 4.70582C23.0592 6.0938 21.4302 6.716 20.0444 6.09435C18.6585 5.47269 18.0373 3.84106 18.658 2.45309C19.2787 1.06511 20.9077 0.442905 22.2935 1.06456ZM13.7623 10.5862L15.1116 7.56879C15.1694 7.43954 15.1831 7.29483 15.1507 7.15699C15.1182 7.01915 15.0414 6.89583 14.9321 6.80604L12.0109 4.40803C11.4276 3.92978 11.2142 3.52455 11.4559 2.97548L11.4748 2.93249C11.7166 2.38336 12.2341 1.97165 12.9052 2.37661C12.9052 2.37661 15.6641 4.39458 16.4134 4.99323C16.5402 5.09457 16.6794 5.17946 16.8274 5.24589C17.726 5.64893 21.0231 7.29269 22.1162 7.78302C22.3454 7.8858 22.5552 8.02711 22.7367 8.20083L25.7357 11.0703C26.1786 11.5041 26.5221 11.963 26.274 12.5093L26.2546 12.5521C26.0065 13.0983 25.3424 13.5165 24.8178 13.0912L21.7614 10.1032C21.742 10.0842 21.7183 10.0702 21.6923 10.0623C21.6663 10.0544 21.6388 10.053 21.6121 10.0581C21.5854 10.0632 21.5604 10.0746 21.5391 10.0915C21.5178 10.1084 21.5009 10.1302 21.4898 10.155L19.7274 14.0962L22.5526 18.0091C22.7131 18.2313 22.7939 18.5012 22.782 18.7752C22.7701 19.0491 22.6661 19.311 22.487 19.5184L20.0865 22.2976C19.8946 22.5196 19.6226 22.6562 19.3303 22.6774C19.0379 22.6985 18.7491 22.6025 18.5274 22.4104C18.0658 22.0104 18.0153 21.3114 18.4147 20.849L19.8097 19.2341C19.8556 19.181 19.8823 19.1139 19.8853 19.0437C19.8884 18.9735 19.8677 18.9043 19.8266 18.8474L18.7104 17.3015C16.8757 14.7748 14.3327 13.761 12.4177 13.0807L10.1321 12.6412C10.0632 12.628 9.99181 12.6384 9.92959 12.6709C9.86736 12.7033 9.8179 12.7559 9.78924 12.82L8.91772 14.7689C8.6682 15.3268 8.01435 15.5765 7.45726 15.3267C7.18974 15.2066 6.98077 14.9851 6.87631 14.7108C6.77186 14.4365 6.78048 14.1318 6.90028 13.8639C7.33508 12.8915 7.98618 11.4359 8.40031 10.5101C8.51222 10.2598 8.70523 10.0548 8.94806 9.92815C9.19089 9.80153 9.4693 9.76077 9.73815 9.81247L13.7623 10.5862Z" fill="#0044F0"/>
</svg>
